<mxfile host="Electron" modified="2024-03-04T14:58:52.178Z" agent="Mozilla/5.0 (Windows NT 10.0; Win64; x64) AppleWebKit/537.36 (KHTML, like Gecko) draw.io/23.0.2 Chrome/120.0.6099.109 Electron/28.1.0 Safari/537.36" etag="Aegfw9NvWukzADDOaasD" version="23.0.2" type="device" pages="3">
  <diagram name="Page-1" id="52a04d89-c75d-2922-d76d-85b35f80e030">
    <mxGraphModel dx="1036" dy="615" grid="1" gridSize="10" guides="1" tooltips="1" connect="1" arrows="1" fold="1" page="1" pageScale="1" pageWidth="1100" pageHeight="850" background="none" math="0" shadow="0">
      <root>
        <mxCell id="0" />
        <mxCell id="1" parent="0" />
        <mxCell id="f8M7woNd-SqGhPNKk8yx-11" value="" style="edgeStyle=orthogonalEdgeStyle;rounded=0;orthogonalLoop=1;jettySize=auto;html=1;" edge="1" parent="1" source="f8M7woNd-SqGhPNKk8yx-1" target="f8M7woNd-SqGhPNKk8yx-7">
          <mxGeometry relative="1" as="geometry" />
        </mxCell>
        <mxCell id="f8M7woNd-SqGhPNKk8yx-1" value="kafkaToDataLake" style="html=1;rounded=0;shadow=0;comic=0;labelBackgroundColor=none;strokeWidth=2;fontFamily=Verdana;fontSize=12;align=center;shape=mxgraph.ios7ui.horLines;" vertex="1" parent="1">
          <mxGeometry x="330" y="330" width="135" height="50" as="geometry" />
        </mxCell>
        <mxCell id="f8M7woNd-SqGhPNKk8yx-10" value="" style="edgeStyle=orthogonalEdgeStyle;rounded=0;orthogonalLoop=1;jettySize=auto;html=1;" edge="1" parent="1" source="f8M7woNd-SqGhPNKk8yx-4" target="f8M7woNd-SqGhPNKk8yx-1">
          <mxGeometry relative="1" as="geometry" />
        </mxCell>
        <mxCell id="f8M7woNd-SqGhPNKk8yx-40" style="edgeStyle=orthogonalEdgeStyle;rounded=0;orthogonalLoop=1;jettySize=auto;html=1;exitX=0.75;exitY=0;exitDx=0;exitDy=0;" edge="1" parent="1" source="f8M7woNd-SqGhPNKk8yx-4" target="f8M7woNd-SqGhPNKk8yx-36">
          <mxGeometry relative="1" as="geometry" />
        </mxCell>
        <mxCell id="f8M7woNd-SqGhPNKk8yx-4" value="ict-skill" style="whiteSpace=wrap;html=1;rounded=0;shadow=0;comic=0;labelBackgroundColor=none;strokeWidth=1;fontFamily=Verdana;fontSize=12;align=center;" vertex="1" parent="1">
          <mxGeometry x="170" y="330" width="120" height="50" as="geometry" />
        </mxCell>
        <mxCell id="f8M7woNd-SqGhPNKk8yx-6" style="edgeStyle=orthogonalEdgeStyle;rounded=0;orthogonalLoop=1;jettySize=auto;html=1;entryX=0.5;entryY=0;entryDx=0;entryDy=0;" edge="1" parent="1" source="f8M7woNd-SqGhPNKk8yx-5" target="f8M7woNd-SqGhPNKk8yx-4">
          <mxGeometry relative="1" as="geometry" />
        </mxCell>
        <mxCell id="f8M7woNd-SqGhPNKk8yx-5" value="Produce Ingestion" style="html=1;rounded=0;shadow=0;comic=0;labelBackgroundColor=none;strokeWidth=2;fontFamily=Verdana;fontSize=12;align=center;shape=mxgraph.ios7ui.horLines;" vertex="1" parent="1">
          <mxGeometry x="20" y="280" width="135" height="50" as="geometry" />
        </mxCell>
        <object label="SubmitLogs" id="f8M7woNd-SqGhPNKk8yx-7">
          <mxCell style="swimlane;html=1;fontStyle=0;childLayout=stackLayout;horizontal=1;startSize=26;fillColor=#e0e0e0;horizontalStack=0;resizeParent=1;resizeLast=0;collapsible=1;marginBottom=0;swimlaneFillColor=#ffffff;align=center;rounded=1;shadow=0;comic=0;labelBackgroundColor=none;strokeWidth=1;fontFamily=Verdana;fontSize=12" vertex="1" parent="1">
            <mxGeometry x="327" y="432" width="140" height="208" as="geometry" />
          </mxCell>
        </object>
        <mxCell id="f8M7woNd-SqGhPNKk8yx-80" value="id" style="text;html=1;strokeColor=none;fillColor=none;spacingLeft=4;spacingRight=4;whiteSpace=wrap;overflow=hidden;rotatable=0;points=[[0,0.5],[1,0.5]];portConstraint=eastwest;align=center;" vertex="1" parent="f8M7woNd-SqGhPNKk8yx-7">
          <mxGeometry y="26" width="140" height="26" as="geometry" />
        </mxCell>
        <mxCell id="f8M7woNd-SqGhPNKk8yx-8" value="Name" style="text;html=1;strokeColor=none;fillColor=none;spacingLeft=4;spacingRight=4;whiteSpace=wrap;overflow=hidden;rotatable=0;points=[[0,0.5],[1,0.5]];portConstraint=eastwest;align=center;" vertex="1" parent="f8M7woNd-SqGhPNKk8yx-7">
          <mxGeometry y="52" width="140" height="26" as="geometry" />
        </mxCell>
        <mxCell id="f8M7woNd-SqGhPNKk8yx-14" value="Address" style="text;html=1;strokeColor=none;fillColor=none;spacingLeft=4;spacingRight=4;whiteSpace=wrap;overflow=hidden;rotatable=0;points=[[0,0.5],[1,0.5]];portConstraint=eastwest;align=center;" vertex="1" parent="f8M7woNd-SqGhPNKk8yx-7">
          <mxGeometry y="78" width="140" height="26" as="geometry" />
        </mxCell>
        <mxCell id="f8M7woNd-SqGhPNKk8yx-15" value="Country" style="text;html=1;strokeColor=none;fillColor=none;spacingLeft=4;spacingRight=4;whiteSpace=wrap;overflow=hidden;rotatable=0;points=[[0,0.5],[1,0.5]];portConstraint=eastwest;align=center;" vertex="1" parent="f8M7woNd-SqGhPNKk8yx-7">
          <mxGeometry y="104" width="140" height="26" as="geometry" />
        </mxCell>
        <mxCell id="f8M7woNd-SqGhPNKk8yx-16" value="Sex" style="text;html=1;strokeColor=none;fillColor=none;spacingLeft=4;spacingRight=4;whiteSpace=wrap;overflow=hidden;rotatable=0;points=[[0,0.5],[1,0.5]];portConstraint=eastwest;align=center;" vertex="1" parent="f8M7woNd-SqGhPNKk8yx-7">
          <mxGeometry y="130" width="140" height="26" as="geometry" />
        </mxCell>
        <mxCell id="f8M7woNd-SqGhPNKk8yx-17" value="key" style="text;html=1;strokeColor=none;fillColor=none;spacingLeft=4;spacingRight=4;whiteSpace=wrap;overflow=hidden;rotatable=0;points=[[0,0.5],[1,0.5]];portConstraint=eastwest;align=center;" vertex="1" parent="f8M7woNd-SqGhPNKk8yx-7">
          <mxGeometry y="156" width="140" height="26" as="geometry" />
        </mxCell>
        <mxCell id="f8M7woNd-SqGhPNKk8yx-18" value="Params" style="text;html=1;strokeColor=none;fillColor=none;spacingLeft=4;spacingRight=4;whiteSpace=wrap;overflow=hidden;rotatable=0;points=[[0,0.5],[1,0.5]];portConstraint=eastwest;align=center;" vertex="1" parent="f8M7woNd-SqGhPNKk8yx-7">
          <mxGeometry y="182" width="140" height="26" as="geometry" />
        </mxCell>
        <object label="Params" id="f8M7woNd-SqGhPNKk8yx-20">
          <mxCell style="swimlane;html=1;fontStyle=0;childLayout=stackLayout;horizontal=1;startSize=26;fillColor=#e0e0e0;horizontalStack=0;resizeParent=1;resizeLast=0;collapsible=1;marginBottom=0;swimlaneFillColor=#ffffff;align=center;rounded=1;shadow=0;comic=0;labelBackgroundColor=none;strokeWidth=1;fontFamily=Verdana;fontSize=12" vertex="1" parent="1">
            <mxGeometry x="480" y="500" width="370" height="286" as="geometry" />
          </mxCell>
        </object>
        <mxCell id="f8M7woNd-SqGhPNKk8yx-21" value="Copied_or_moved_a_file_or_folder" style="text;html=1;strokeColor=none;fillColor=none;spacingLeft=4;spacingRight=4;whiteSpace=wrap;overflow=hidden;rotatable=0;points=[[0,0.5],[1,0.5]];portConstraint=eastwest;align=center;" vertex="1" parent="f8M7woNd-SqGhPNKk8yx-20">
          <mxGeometry y="26" width="370" height="26" as="geometry" />
        </mxCell>
        <mxCell id="f8M7woNd-SqGhPNKk8yx-22" value="Used_a_copy_and_paste_tool_to_duplicate_or_move_information_wit" style="text;html=1;strokeColor=none;fillColor=none;spacingLeft=4;spacingRight=4;whiteSpace=wrap;overflow=hidden;rotatable=0;points=[[0,0.5],[1,0.5]];portConstraint=eastwest;align=center;" vertex="1" parent="f8M7woNd-SqGhPNKk8yx-20">
          <mxGeometry y="52" width="370" height="26" as="geometry" />
        </mxCell>
        <mxCell id="f8M7woNd-SqGhPNKk8yx-23" value="Sent_email_with_attached_file" style="text;html=1;strokeColor=none;fillColor=none;spacingLeft=4;spacingRight=4;whiteSpace=wrap;overflow=hidden;rotatable=0;points=[[0,0.5],[1,0.5]];portConstraint=eastwest;align=center;" vertex="1" parent="f8M7woNd-SqGhPNKk8yx-20">
          <mxGeometry y="78" width="370" height="26" as="geometry" />
        </mxCell>
        <mxCell id="f8M7woNd-SqGhPNKk8yx-24" value="Used_basic_arithmetic_formula_in_spreadsheet" style="text;html=1;strokeColor=none;fillColor=none;spacingLeft=4;spacingRight=4;whiteSpace=wrap;overflow=hidden;rotatable=0;points=[[0,0.5],[1,0.5]];portConstraint=eastwest;align=center;" vertex="1" parent="f8M7woNd-SqGhPNKk8yx-20">
          <mxGeometry y="104" width="370" height="26" as="geometry" />
        </mxCell>
        <mxCell id="f8M7woNd-SqGhPNKk8yx-25" value="Connected_and_installed_new_device" style="text;html=1;strokeColor=none;fillColor=none;spacingLeft=4;spacingRight=4;whiteSpace=wrap;overflow=hidden;rotatable=0;points=[[0,0.5],[1,0.5]];portConstraint=eastwest;align=center;" vertex="1" parent="f8M7woNd-SqGhPNKk8yx-20">
          <mxGeometry y="130" width="370" height="26" as="geometry" />
        </mxCell>
        <mxCell id="f8M7woNd-SqGhPNKk8yx-26" value="Found_downloaded_installed_and_configured_software" style="text;html=1;strokeColor=none;fillColor=none;spacingLeft=4;spacingRight=4;whiteSpace=wrap;overflow=hidden;rotatable=0;points=[[0,0.5],[1,0.5]];portConstraint=eastwest;align=center;" vertex="1" parent="f8M7woNd-SqGhPNKk8yx-20">
          <mxGeometry y="156" width="370" height="26" as="geometry" />
        </mxCell>
        <mxCell id="f8M7woNd-SqGhPNKk8yx-27" value="Created_electronic_presentation_with_presentation_software" style="text;html=1;strokeColor=none;fillColor=none;spacingLeft=4;spacingRight=4;whiteSpace=wrap;overflow=hidden;rotatable=0;points=[[0,0.5],[1,0.5]];portConstraint=eastwest;align=center;" vertex="1" parent="f8M7woNd-SqGhPNKk8yx-20">
          <mxGeometry y="182" width="370" height="26" as="geometry" />
        </mxCell>
        <mxCell id="f8M7woNd-SqGhPNKk8yx-33" value="&lt;div&gt;Transferred_file_between_computer_and_other_device&lt;/div&gt;&lt;div&gt;&lt;br&gt;&lt;/div&gt;" style="text;html=1;strokeColor=none;fillColor=none;spacingLeft=4;spacingRight=4;whiteSpace=wrap;overflow=hidden;rotatable=0;points=[[0,0.5],[1,0.5]];portConstraint=eastwest;align=center;" vertex="1" parent="f8M7woNd-SqGhPNKk8yx-20">
          <mxGeometry y="208" width="370" height="26" as="geometry" />
        </mxCell>
        <mxCell id="f8M7woNd-SqGhPNKk8yx-34" value="&lt;div&gt;Wrote_computer_program_in_any_programming_language&lt;br&gt;&lt;/div&gt;" style="text;html=1;strokeColor=none;fillColor=none;spacingLeft=4;spacingRight=4;whiteSpace=wrap;overflow=hidden;rotatable=0;points=[[0,0.5],[1,0.5]];portConstraint=eastwest;align=center;" vertex="1" parent="f8M7woNd-SqGhPNKk8yx-20">
          <mxGeometry y="234" width="370" height="26" as="geometry" />
        </mxCell>
        <mxCell id="f8M7woNd-SqGhPNKk8yx-35" value="&lt;div&gt;Performed_at_least_one_out_of_nine_activities&lt;br&gt;&lt;/div&gt;" style="text;html=1;strokeColor=none;fillColor=none;spacingLeft=4;spacingRight=4;whiteSpace=wrap;overflow=hidden;rotatable=0;points=[[0,0.5],[1,0.5]];portConstraint=eastwest;align=center;" vertex="1" parent="f8M7woNd-SqGhPNKk8yx-20">
          <mxGeometry y="260" width="370" height="26" as="geometry" />
        </mxCell>
        <mxCell id="f8M7woNd-SqGhPNKk8yx-43" value="" style="edgeStyle=orthogonalEdgeStyle;rounded=0;orthogonalLoop=1;jettySize=auto;html=1;" edge="1" parent="1" source="f8M7woNd-SqGhPNKk8yx-36" target="f8M7woNd-SqGhPNKk8yx-42">
          <mxGeometry relative="1" as="geometry" />
        </mxCell>
        <mxCell id="f8M7woNd-SqGhPNKk8yx-36" value="kafkaToCheckCategory" style="html=1;rounded=0;shadow=0;comic=0;labelBackgroundColor=none;strokeWidth=2;fontFamily=Verdana;fontSize=12;align=center;shape=mxgraph.ios7ui.horLines;" vertex="1" parent="1">
          <mxGeometry x="329.5" y="90" width="135" height="50" as="geometry" />
        </mxCell>
        <mxCell id="f8M7woNd-SqGhPNKk8yx-46" value="" style="edgeStyle=orthogonalEdgeStyle;rounded=0;orthogonalLoop=1;jettySize=auto;html=1;" edge="1" parent="1" source="f8M7woNd-SqGhPNKk8yx-42" target="f8M7woNd-SqGhPNKk8yx-45">
          <mxGeometry relative="1" as="geometry" />
        </mxCell>
        <mxCell id="f8M7woNd-SqGhPNKk8yx-42" value="ict-skill-checked" style="whiteSpace=wrap;html=1;rounded=0;shadow=0;comic=0;labelBackgroundColor=none;strokeWidth=1;fontFamily=Verdana;fontSize=12;align=center;" vertex="1" parent="1">
          <mxGeometry x="520" y="90" width="120" height="50" as="geometry" />
        </mxCell>
        <mxCell id="f8M7woNd-SqGhPNKk8yx-48" value="" style="edgeStyle=orthogonalEdgeStyle;rounded=0;orthogonalLoop=1;jettySize=auto;html=1;" edge="1" parent="1" source="f8M7woNd-SqGhPNKk8yx-45" target="f8M7woNd-SqGhPNKk8yx-47">
          <mxGeometry relative="1" as="geometry" />
        </mxCell>
        <mxCell id="f8M7woNd-SqGhPNKk8yx-45" value="KafkaToAverageSummaries" style="html=1;rounded=0;shadow=0;comic=0;labelBackgroundColor=none;strokeWidth=2;fontFamily=Verdana;fontSize=12;align=center;shape=mxgraph.ios7ui.horLines;" vertex="1" parent="1">
          <mxGeometry x="690" y="90" width="135" height="50" as="geometry" />
        </mxCell>
        <mxCell id="f8M7woNd-SqGhPNKk8yx-65" value="" style="edgeStyle=none;rounded=0;orthogonalLoop=1;jettySize=auto;html=1;" edge="1" parent="1" source="f8M7woNd-SqGhPNKk8yx-47" target="f8M7woNd-SqGhPNKk8yx-60">
          <mxGeometry relative="1" as="geometry" />
        </mxCell>
        <mxCell id="f8M7woNd-SqGhPNKk8yx-47" value="ict-skill-averaged" style="whiteSpace=wrap;html=1;rounded=0;shadow=0;comic=0;labelBackgroundColor=none;strokeWidth=1;fontFamily=Verdana;fontSize=12;align=center;" vertex="1" parent="1">
          <mxGeometry x="870" y="90" width="120" height="50" as="geometry" />
        </mxCell>
        <object label="Categories" id="f8M7woNd-SqGhPNKk8yx-49">
          <mxCell style="swimlane;html=1;fontStyle=0;childLayout=stackLayout;horizontal=1;startSize=26;fillColor=#e0e0e0;horizontalStack=0;resizeParent=1;resizeLast=0;collapsible=1;marginBottom=0;swimlaneFillColor=#ffffff;align=center;rounded=1;shadow=0;comic=0;labelBackgroundColor=none;strokeWidth=1;fontFamily=Verdana;fontSize=12" vertex="1" parent="1">
            <mxGeometry x="124" y="50" width="140" height="156" as="geometry" />
          </mxCell>
        </object>
        <mxCell id="f8M7woNd-SqGhPNKk8yx-84" value="Id" style="text;html=1;strokeColor=none;fillColor=none;spacingLeft=4;spacingRight=4;whiteSpace=wrap;overflow=hidden;rotatable=0;points=[[0,0.5],[1,0.5]];portConstraint=eastwest;align=center;" vertex="1" parent="f8M7woNd-SqGhPNKk8yx-49">
          <mxGeometry y="26" width="140" height="26" as="geometry" />
        </mxCell>
        <mxCell id="f8M7woNd-SqGhPNKk8yx-50" value="Country" style="text;html=1;strokeColor=none;fillColor=none;spacingLeft=4;spacingRight=4;whiteSpace=wrap;overflow=hidden;rotatable=0;points=[[0,0.5],[1,0.5]];portConstraint=eastwest;align=center;" vertex="1" parent="f8M7woNd-SqGhPNKk8yx-49">
          <mxGeometry y="52" width="140" height="26" as="geometry" />
        </mxCell>
        <mxCell id="f8M7woNd-SqGhPNKk8yx-51" value="ISO3" style="text;html=1;strokeColor=none;fillColor=none;spacingLeft=4;spacingRight=4;whiteSpace=wrap;overflow=hidden;rotatable=0;points=[[0,0.5],[1,0.5]];portConstraint=eastwest;align=center;" vertex="1" parent="f8M7woNd-SqGhPNKk8yx-49">
          <mxGeometry y="78" width="140" height="26" as="geometry" />
        </mxCell>
        <mxCell id="f8M7woNd-SqGhPNKk8yx-52" value="UNICER_Region" style="text;html=1;strokeColor=none;fillColor=none;spacingLeft=4;spacingRight=4;whiteSpace=wrap;overflow=hidden;rotatable=0;points=[[0,0.5],[1,0.5]];portConstraint=eastwest;align=center;" vertex="1" parent="f8M7woNd-SqGhPNKk8yx-49">
          <mxGeometry y="104" width="140" height="26" as="geometry" />
        </mxCell>
        <mxCell id="f8M7woNd-SqGhPNKk8yx-53" value="Sex" style="text;html=1;strokeColor=none;fillColor=none;spacingLeft=4;spacingRight=4;whiteSpace=wrap;overflow=hidden;rotatable=0;points=[[0,0.5],[1,0.5]];portConstraint=eastwest;align=center;" vertex="1" parent="f8M7woNd-SqGhPNKk8yx-49">
          <mxGeometry y="130" width="140" height="26" as="geometry" />
        </mxCell>
        <mxCell id="f8M7woNd-SqGhPNKk8yx-59" style="edgeStyle=none;shape=link;rounded=0;orthogonalLoop=1;jettySize=auto;html=1;exitX=1;exitY=0.5;exitDx=0;exitDy=0;" edge="1" parent="1" source="f8M7woNd-SqGhPNKk8yx-50" target="f8M7woNd-SqGhPNKk8yx-36">
          <mxGeometry relative="1" as="geometry" />
        </mxCell>
        <mxCell id="f8M7woNd-SqGhPNKk8yx-69" value="" style="edgeStyle=none;rounded=0;orthogonalLoop=1;jettySize=auto;html=1;" edge="1" parent="1" source="f8M7woNd-SqGhPNKk8yx-60" target="f8M7woNd-SqGhPNKk8yx-66">
          <mxGeometry relative="1" as="geometry" />
        </mxCell>
        <mxCell id="f8M7woNd-SqGhPNKk8yx-60" value="KafkaToNormalizeSummariesValue" style="html=1;rounded=0;shadow=0;comic=0;labelBackgroundColor=none;strokeWidth=2;fontFamily=Verdana;fontSize=12;align=center;shape=mxgraph.ios7ui.horLines;" vertex="1" parent="1">
          <mxGeometry x="862.5" y="190" width="135" height="50" as="geometry" />
        </mxCell>
        <mxCell id="f8M7woNd-SqGhPNKk8yx-97" style="edgeStyle=orthogonalEdgeStyle;rounded=0;orthogonalLoop=1;jettySize=auto;html=1;entryX=0.5;entryY=0;entryDx=0;entryDy=0;" edge="1" parent="1" source="f8M7woNd-SqGhPNKk8yx-61" target="f8M7woNd-SqGhPNKk8yx-86">
          <mxGeometry relative="1" as="geometry" />
        </mxCell>
        <mxCell id="f8M7woNd-SqGhPNKk8yx-61" value="KafkaToUpdateSummaries." style="html=1;rounded=0;shadow=0;comic=0;labelBackgroundColor=none;strokeWidth=2;fontFamily=Verdana;fontSize=12;align=center;shape=mxgraph.ios7ui.horLines;" vertex="1" parent="1">
          <mxGeometry x="862.5" y="280" width="135" height="50" as="geometry" />
        </mxCell>
        <mxCell id="f8M7woNd-SqGhPNKk8yx-78" value="" style="edgeStyle=none;rounded=0;orthogonalLoop=1;jettySize=auto;html=1;entryX=0.5;entryY=0;entryDx=0;entryDy=0;" edge="1" parent="1" source="f8M7woNd-SqGhPNKk8yx-62" target="f8M7woNd-SqGhPNKk8yx-71">
          <mxGeometry relative="1" as="geometry" />
        </mxCell>
        <mxCell id="f8M7woNd-SqGhPNKk8yx-81" style="edgeStyle=orthogonalEdgeStyle;rounded=0;orthogonalLoop=1;jettySize=auto;html=1;entryX=0;entryY=0.5;entryDx=0;entryDy=0;" edge="1" parent="1" source="f8M7woNd-SqGhPNKk8yx-62" target="f8M7woNd-SqGhPNKk8yx-67">
          <mxGeometry relative="1" as="geometry" />
        </mxCell>
        <mxCell id="f8M7woNd-SqGhPNKk8yx-62" value="KafkaToSavedActivitySummaries" style="html=1;rounded=0;shadow=0;comic=0;labelBackgroundColor=none;strokeWidth=2;fontFamily=Verdana;fontSize=12;align=center;shape=mxgraph.ios7ui.horLines;" vertex="1" parent="1">
          <mxGeometry x="520" y="190" width="135" height="50" as="geometry" />
        </mxCell>
        <mxCell id="f8M7woNd-SqGhPNKk8yx-70" value="" style="edgeStyle=none;rounded=0;orthogonalLoop=1;jettySize=auto;html=1;" edge="1" parent="1" source="f8M7woNd-SqGhPNKk8yx-66" target="f8M7woNd-SqGhPNKk8yx-62">
          <mxGeometry relative="1" as="geometry" />
        </mxCell>
        <mxCell id="f8M7woNd-SqGhPNKk8yx-66" value="ict-skill-normalized" style="whiteSpace=wrap;html=1;rounded=0;shadow=0;comic=0;labelBackgroundColor=none;strokeWidth=1;fontFamily=Verdana;fontSize=12;align=center;" vertex="1" parent="1">
          <mxGeometry x="697.5" y="190" width="120" height="50" as="geometry" />
        </mxCell>
        <mxCell id="f8M7woNd-SqGhPNKk8yx-82" value="" style="edgeStyle=none;rounded=0;orthogonalLoop=1;jettySize=auto;html=1;" edge="1" parent="1" source="f8M7woNd-SqGhPNKk8yx-67" target="f8M7woNd-SqGhPNKk8yx-61">
          <mxGeometry relative="1" as="geometry" />
        </mxCell>
        <mxCell id="f8M7woNd-SqGhPNKk8yx-67" value="ict-skill-activity" style="whiteSpace=wrap;html=1;rounded=0;shadow=0;comic=0;labelBackgroundColor=none;strokeWidth=1;fontFamily=Verdana;fontSize=12;align=center;" vertex="1" parent="1">
          <mxGeometry x="697.5" y="279" width="120" height="50" as="geometry" />
        </mxCell>
        <object label="Activities" id="f8M7woNd-SqGhPNKk8yx-71">
          <mxCell style="swimlane;html=1;fontStyle=0;childLayout=stackLayout;horizontal=1;startSize=26;fillColor=#e0e0e0;horizontalStack=0;resizeParent=1;resizeLast=0;collapsible=1;marginBottom=0;swimlaneFillColor=#ffffff;align=center;rounded=1;shadow=0;comic=0;labelBackgroundColor=none;strokeWidth=1;fontFamily=Verdana;fontSize=12" vertex="1" parent="1">
            <mxGeometry x="517" y="279" width="140" height="104" as="geometry" />
          </mxCell>
        </object>
        <mxCell id="f8M7woNd-SqGhPNKk8yx-72" value="old" style="text;html=1;strokeColor=none;fillColor=none;spacingLeft=4;spacingRight=4;whiteSpace=wrap;overflow=hidden;rotatable=0;points=[[0,0.5],[1,0.5]];portConstraint=eastwest;align=center;" vertex="1" parent="f8M7woNd-SqGhPNKk8yx-71">
          <mxGeometry y="26" width="140" height="26" as="geometry" />
        </mxCell>
        <mxCell id="f8M7woNd-SqGhPNKk8yx-73" value="new" style="text;html=1;strokeColor=none;fillColor=none;spacingLeft=4;spacingRight=4;whiteSpace=wrap;overflow=hidden;rotatable=0;points=[[0,0.5],[1,0.5]];portConstraint=eastwest;align=center;" vertex="1" parent="f8M7woNd-SqGhPNKk8yx-71">
          <mxGeometry y="52" width="140" height="26" as="geometry" />
        </mxCell>
        <mxCell id="f8M7woNd-SqGhPNKk8yx-74" value="SubmitLogs_id" style="text;html=1;strokeColor=none;fillColor=none;spacingLeft=4;spacingRight=4;whiteSpace=wrap;overflow=hidden;rotatable=0;points=[[0,0.5],[1,0.5]];portConstraint=eastwest;align=center;" vertex="1" parent="f8M7woNd-SqGhPNKk8yx-71">
          <mxGeometry y="78" width="140" height="26" as="geometry" />
        </mxCell>
        <mxCell id="f8M7woNd-SqGhPNKk8yx-83" style="edgeStyle=orthogonalEdgeStyle;rounded=0;orthogonalLoop=1;jettySize=auto;html=1;exitX=1;exitY=0.5;exitDx=0;exitDy=0;entryX=0;entryY=0.5;entryDx=0;entryDy=0;" edge="1" parent="1" source="f8M7woNd-SqGhPNKk8yx-80" target="f8M7woNd-SqGhPNKk8yx-74">
          <mxGeometry relative="1" as="geometry" />
        </mxCell>
        <object label="Summaries" id="f8M7woNd-SqGhPNKk8yx-86">
          <mxCell style="swimlane;html=1;fontStyle=0;childLayout=stackLayout;horizontal=1;startSize=26;fillColor=#e0e0e0;horizontalStack=0;resizeParent=1;resizeLast=0;collapsible=1;marginBottom=0;swimlaneFillColor=#ffffff;align=center;rounded=1;shadow=0;comic=0;labelBackgroundColor=none;strokeWidth=1;fontFamily=Verdana;fontSize=12" vertex="1" parent="1">
            <mxGeometry x="860" y="370" width="140" height="182" as="geometry" />
          </mxCell>
        </object>
        <mxCell id="f8M7woNd-SqGhPNKk8yx-87" value="id" style="text;html=1;strokeColor=none;fillColor=none;spacingLeft=4;spacingRight=4;whiteSpace=wrap;overflow=hidden;rotatable=0;points=[[0,0.5],[1,0.5]];portConstraint=eastwest;align=center;" vertex="1" parent="f8M7woNd-SqGhPNKk8yx-86">
          <mxGeometry y="26" width="140" height="26" as="geometry" />
        </mxCell>
        <mxCell id="f8M7woNd-SqGhPNKk8yx-88" value="Params" style="text;html=1;strokeColor=none;fillColor=none;spacingLeft=4;spacingRight=4;whiteSpace=wrap;overflow=hidden;rotatable=0;points=[[0,0.5],[1,0.5]];portConstraint=eastwest;align=center;" vertex="1" parent="f8M7woNd-SqGhPNKk8yx-86">
          <mxGeometry y="52" width="140" height="26" as="geometry" />
        </mxCell>
        <mxCell id="f8M7woNd-SqGhPNKk8yx-89" value="Source" style="text;html=1;strokeColor=none;fillColor=none;spacingLeft=4;spacingRight=4;whiteSpace=wrap;overflow=hidden;rotatable=0;points=[[0,0.5],[1,0.5]];portConstraint=eastwest;align=center;" vertex="1" parent="f8M7woNd-SqGhPNKk8yx-86">
          <mxGeometry y="78" width="140" height="26" as="geometry" />
        </mxCell>
        <mxCell id="f8M7woNd-SqGhPNKk8yx-90" value="Year&lt;span style=&quot;white-space: pre;&quot;&gt;&#x9;&lt;/span&gt;" style="text;html=1;strokeColor=none;fillColor=none;spacingLeft=4;spacingRight=4;whiteSpace=wrap;overflow=hidden;rotatable=0;points=[[0,0.5],[1,0.5]];portConstraint=eastwest;align=center;" vertex="1" parent="f8M7woNd-SqGhPNKk8yx-86">
          <mxGeometry y="104" width="140" height="26" as="geometry" />
        </mxCell>
        <mxCell id="f8M7woNd-SqGhPNKk8yx-91" value="Category_id" style="text;html=1;strokeColor=none;fillColor=none;spacingLeft=4;spacingRight=4;whiteSpace=wrap;overflow=hidden;rotatable=0;points=[[0,0.5],[1,0.5]];portConstraint=eastwest;align=center;" vertex="1" parent="f8M7woNd-SqGhPNKk8yx-86">
          <mxGeometry y="130" width="140" height="26" as="geometry" />
        </mxCell>
        <mxCell id="f8M7woNd-SqGhPNKk8yx-92" value="Count" style="text;html=1;strokeColor=none;fillColor=none;spacingLeft=4;spacingRight=4;whiteSpace=wrap;overflow=hidden;rotatable=0;points=[[0,0.5],[1,0.5]];portConstraint=eastwest;align=center;" vertex="1" parent="f8M7woNd-SqGhPNKk8yx-86">
          <mxGeometry y="156" width="140" height="26" as="geometry" />
        </mxCell>
        <mxCell id="f8M7woNd-SqGhPNKk8yx-93" style="edgeStyle=orthogonalEdgeStyle;rounded=0;orthogonalLoop=1;jettySize=auto;html=1;exitX=1;exitY=0.5;exitDx=0;exitDy=0;entryX=1;entryY=0.5;entryDx=0;entryDy=0;" edge="1" parent="1" source="f8M7woNd-SqGhPNKk8yx-84" target="f8M7woNd-SqGhPNKk8yx-91">
          <mxGeometry relative="1" as="geometry">
            <Array as="points">
              <mxPoint x="300" y="89" />
              <mxPoint x="300" y="60" />
              <mxPoint x="1050" y="60" />
              <mxPoint x="1050" y="513" />
            </Array>
          </mxGeometry>
        </mxCell>
      </root>
    </mxGraphModel>
  </diagram>
  <diagram id="dwDWCx_x1IolPBM8Ncon" name="Page-2">
    <mxGraphModel dx="1594" dy="946" grid="1" gridSize="10" guides="1" tooltips="1" connect="1" arrows="1" fold="1" page="1" pageScale="1" pageWidth="827" pageHeight="1169" math="0" shadow="0">
      <root>
        <mxCell id="0" />
        <mxCell id="1" parent="0" />
        <object label="Params" id="Eu6U7UZuKyy766oEzDAg-1">
          <mxCell style="swimlane;html=1;fontStyle=0;childLayout=stackLayout;horizontal=1;startSize=26;fillColor=#e0e0e0;horizontalStack=0;resizeParent=1;resizeLast=0;collapsible=1;marginBottom=0;swimlaneFillColor=#ffffff;align=center;rounded=1;shadow=0;comic=0;labelBackgroundColor=none;strokeWidth=1;fontFamily=Verdana;fontSize=12" vertex="1" parent="1">
            <mxGeometry x="419" y="240" width="370" height="286" as="geometry">
              <mxRectangle x="140" y="60" width="80" height="30" as="alternateBounds" />
            </mxGeometry>
          </mxCell>
        </object>
        <mxCell id="Eu6U7UZuKyy766oEzDAg-2" value="Copied_or_moved_a_file_or_folder" style="text;html=1;strokeColor=none;fillColor=none;spacingLeft=4;spacingRight=4;whiteSpace=wrap;overflow=hidden;rotatable=0;points=[[0,0.5],[1,0.5]];portConstraint=eastwest;align=center;" vertex="1" parent="Eu6U7UZuKyy766oEzDAg-1">
          <mxGeometry y="26" width="370" height="26" as="geometry" />
        </mxCell>
        <mxCell id="Eu6U7UZuKyy766oEzDAg-3" value="Used_a_copy_and_paste_tool_to_duplicate_or_move_information_wit" style="text;html=1;strokeColor=none;fillColor=none;spacingLeft=4;spacingRight=4;whiteSpace=wrap;overflow=hidden;rotatable=0;points=[[0,0.5],[1,0.5]];portConstraint=eastwest;align=center;" vertex="1" parent="Eu6U7UZuKyy766oEzDAg-1">
          <mxGeometry y="52" width="370" height="26" as="geometry" />
        </mxCell>
        <mxCell id="Eu6U7UZuKyy766oEzDAg-4" value="Sent_email_with_attached_file" style="text;html=1;strokeColor=none;fillColor=none;spacingLeft=4;spacingRight=4;whiteSpace=wrap;overflow=hidden;rotatable=0;points=[[0,0.5],[1,0.5]];portConstraint=eastwest;align=center;" vertex="1" parent="Eu6U7UZuKyy766oEzDAg-1">
          <mxGeometry y="78" width="370" height="26" as="geometry" />
        </mxCell>
        <mxCell id="Eu6U7UZuKyy766oEzDAg-5" value="Used_basic_arithmetic_formula_in_spreadsheet" style="text;html=1;strokeColor=none;fillColor=none;spacingLeft=4;spacingRight=4;whiteSpace=wrap;overflow=hidden;rotatable=0;points=[[0,0.5],[1,0.5]];portConstraint=eastwest;align=center;" vertex="1" parent="Eu6U7UZuKyy766oEzDAg-1">
          <mxGeometry y="104" width="370" height="26" as="geometry" />
        </mxCell>
        <mxCell id="Eu6U7UZuKyy766oEzDAg-6" value="Connected_and_installed_new_device" style="text;html=1;strokeColor=none;fillColor=none;spacingLeft=4;spacingRight=4;whiteSpace=wrap;overflow=hidden;rotatable=0;points=[[0,0.5],[1,0.5]];portConstraint=eastwest;align=center;" vertex="1" parent="Eu6U7UZuKyy766oEzDAg-1">
          <mxGeometry y="130" width="370" height="26" as="geometry" />
        </mxCell>
        <mxCell id="Eu6U7UZuKyy766oEzDAg-7" value="Found_downloaded_installed_and_configured_software" style="text;html=1;strokeColor=none;fillColor=none;spacingLeft=4;spacingRight=4;whiteSpace=wrap;overflow=hidden;rotatable=0;points=[[0,0.5],[1,0.5]];portConstraint=eastwest;align=center;" vertex="1" parent="Eu6U7UZuKyy766oEzDAg-1">
          <mxGeometry y="156" width="370" height="26" as="geometry" />
        </mxCell>
        <mxCell id="Eu6U7UZuKyy766oEzDAg-8" value="Created_electronic_presentation_with_presentation_software" style="text;html=1;strokeColor=none;fillColor=none;spacingLeft=4;spacingRight=4;whiteSpace=wrap;overflow=hidden;rotatable=0;points=[[0,0.5],[1,0.5]];portConstraint=eastwest;align=center;" vertex="1" parent="Eu6U7UZuKyy766oEzDAg-1">
          <mxGeometry y="182" width="370" height="26" as="geometry" />
        </mxCell>
        <mxCell id="Eu6U7UZuKyy766oEzDAg-9" value="&lt;div&gt;Transferred_file_between_computer_and_other_device&lt;/div&gt;&lt;div&gt;&lt;br&gt;&lt;/div&gt;" style="text;html=1;strokeColor=none;fillColor=none;spacingLeft=4;spacingRight=4;whiteSpace=wrap;overflow=hidden;rotatable=0;points=[[0,0.5],[1,0.5]];portConstraint=eastwest;align=center;" vertex="1" parent="Eu6U7UZuKyy766oEzDAg-1">
          <mxGeometry y="208" width="370" height="26" as="geometry" />
        </mxCell>
        <mxCell id="Eu6U7UZuKyy766oEzDAg-10" value="&lt;div&gt;Wrote_computer_program_in_any_programming_language&lt;br&gt;&lt;/div&gt;" style="text;html=1;strokeColor=none;fillColor=none;spacingLeft=4;spacingRight=4;whiteSpace=wrap;overflow=hidden;rotatable=0;points=[[0,0.5],[1,0.5]];portConstraint=eastwest;align=center;" vertex="1" parent="Eu6U7UZuKyy766oEzDAg-1">
          <mxGeometry y="234" width="370" height="26" as="geometry" />
        </mxCell>
        <mxCell id="Eu6U7UZuKyy766oEzDAg-11" value="&lt;div&gt;Performed_at_least_one_out_of_nine_activities&lt;br&gt;&lt;/div&gt;" style="text;html=1;strokeColor=none;fillColor=none;spacingLeft=4;spacingRight=4;whiteSpace=wrap;overflow=hidden;rotatable=0;points=[[0,0.5],[1,0.5]];portConstraint=eastwest;align=center;" vertex="1" parent="Eu6U7UZuKyy766oEzDAg-1">
          <mxGeometry y="260" width="370" height="26" as="geometry" />
        </mxCell>
        <object label="Categories" id="YxmOhMVxXYnW-pYDRwPB-1">
          <mxCell style="swimlane;html=1;fontStyle=0;childLayout=stackLayout;horizontal=1;startSize=26;fillColor=#e0e0e0;horizontalStack=0;resizeParent=1;resizeLast=0;collapsible=1;marginBottom=0;swimlaneFillColor=#ffffff;align=center;rounded=1;shadow=0;comic=0;labelBackgroundColor=none;strokeWidth=1;fontFamily=Verdana;fontSize=12" vertex="1" parent="1">
            <mxGeometry x="39" y="390" width="140" height="130" as="geometry" />
          </mxCell>
        </object>
        <mxCell id="YxmOhMVxXYnW-pYDRwPB-2" value="Id" style="text;html=1;strokeColor=none;fillColor=none;spacingLeft=4;spacingRight=4;whiteSpace=wrap;overflow=hidden;rotatable=0;points=[[0,0.5],[1,0.5]];portConstraint=eastwest;align=center;" vertex="1" parent="YxmOhMVxXYnW-pYDRwPB-1">
          <mxGeometry y="26" width="140" height="26" as="geometry" />
        </mxCell>
        <mxCell id="MK_BJogXsGRe00bPJO1N-11" value="Name" style="text;html=1;strokeColor=none;fillColor=none;spacingLeft=4;spacingRight=4;whiteSpace=wrap;overflow=hidden;rotatable=0;points=[[0,0.5],[1,0.5]];portConstraint=eastwest;align=center;" vertex="1" parent="YxmOhMVxXYnW-pYDRwPB-1">
          <mxGeometry y="52" width="140" height="26" as="geometry" />
        </mxCell>
        <mxCell id="YxmOhMVxXYnW-pYDRwPB-4" value="ISO3" style="text;html=1;strokeColor=none;fillColor=none;spacingLeft=4;spacingRight=4;whiteSpace=wrap;overflow=hidden;rotatable=0;points=[[0,0.5],[1,0.5]];portConstraint=eastwest;align=center;" vertex="1" parent="YxmOhMVxXYnW-pYDRwPB-1">
          <mxGeometry y="78" width="140" height="26" as="geometry" />
        </mxCell>
        <mxCell id="YxmOhMVxXYnW-pYDRwPB-5" value="UNICER_Region" style="text;html=1;strokeColor=none;fillColor=none;spacingLeft=4;spacingRight=4;whiteSpace=wrap;overflow=hidden;rotatable=0;points=[[0,0.5],[1,0.5]];portConstraint=eastwest;align=center;" vertex="1" parent="YxmOhMVxXYnW-pYDRwPB-1">
          <mxGeometry y="104" width="140" height="26" as="geometry" />
        </mxCell>
        <object label="Summaries" id="MK_BJogXsGRe00bPJO1N-1">
          <mxCell style="swimlane;html=1;fontStyle=0;childLayout=stackLayout;horizontal=1;startSize=26;fillColor=#e0e0e0;horizontalStack=0;resizeParent=1;resizeLast=0;collapsible=1;marginBottom=0;swimlaneFillColor=#ffffff;align=center;rounded=1;shadow=0;comic=0;labelBackgroundColor=none;strokeWidth=1;fontFamily=Verdana;fontSize=12" vertex="1" parent="1">
            <mxGeometry x="249" y="390" width="140" height="234" as="geometry" />
          </mxCell>
        </object>
        <mxCell id="MK_BJogXsGRe00bPJO1N-2" value="id" style="text;html=1;strokeColor=none;fillColor=none;spacingLeft=4;spacingRight=4;whiteSpace=wrap;overflow=hidden;rotatable=0;points=[[0,0.5],[1,0.5]];portConstraint=eastwest;align=center;" vertex="1" parent="MK_BJogXsGRe00bPJO1N-1">
          <mxGeometry y="26" width="140" height="26" as="geometry" />
        </mxCell>
        <mxCell id="MK_BJogXsGRe00bPJO1N-3" value="Params" style="text;html=1;strokeColor=none;fillColor=none;spacingLeft=4;spacingRight=4;whiteSpace=wrap;overflow=hidden;rotatable=0;points=[[0,0.5],[1,0.5]];portConstraint=eastwest;align=center;" vertex="1" parent="MK_BJogXsGRe00bPJO1N-1">
          <mxGeometry y="52" width="140" height="26" as="geometry" />
        </mxCell>
        <mxCell id="MK_BJogXsGRe00bPJO1N-4" value="Source" style="text;html=1;strokeColor=none;fillColor=none;spacingLeft=4;spacingRight=4;whiteSpace=wrap;overflow=hidden;rotatable=0;points=[[0,0.5],[1,0.5]];portConstraint=eastwest;align=center;" vertex="1" parent="MK_BJogXsGRe00bPJO1N-1">
          <mxGeometry y="78" width="140" height="26" as="geometry" />
        </mxCell>
        <mxCell id="MK_BJogXsGRe00bPJO1N-5" value="Year&lt;span style=&quot;white-space: pre;&quot;&gt;&#x9;&lt;/span&gt;" style="text;html=1;strokeColor=none;fillColor=none;spacingLeft=4;spacingRight=4;whiteSpace=wrap;overflow=hidden;rotatable=0;points=[[0,0.5],[1,0.5]];portConstraint=eastwest;align=center;" vertex="1" parent="MK_BJogXsGRe00bPJO1N-1">
          <mxGeometry y="104" width="140" height="26" as="geometry" />
        </mxCell>
        <mxCell id="r2h8bzkQaz5aye57R5uN-1" value="Params" style="text;html=1;strokeColor=none;fillColor=none;spacingLeft=4;spacingRight=4;whiteSpace=wrap;overflow=hidden;rotatable=0;points=[[0,0.5],[1,0.5]];portConstraint=eastwest;align=center;" vertex="1" parent="MK_BJogXsGRe00bPJO1N-1">
          <mxGeometry y="130" width="140" height="26" as="geometry" />
        </mxCell>
        <mxCell id="MK_BJogXsGRe00bPJO1N-6" value="Category_id" style="text;html=1;strokeColor=none;fillColor=none;spacingLeft=4;spacingRight=4;whiteSpace=wrap;overflow=hidden;rotatable=0;points=[[0,0.5],[1,0.5]];portConstraint=eastwest;align=center;" vertex="1" parent="MK_BJogXsGRe00bPJO1N-1">
          <mxGeometry y="156" width="140" height="26" as="geometry" />
        </mxCell>
        <mxCell id="MK_BJogXsGRe00bPJO1N-22" value="Country_id" style="text;html=1;strokeColor=none;fillColor=none;spacingLeft=4;spacingRight=4;whiteSpace=wrap;overflow=hidden;rotatable=0;points=[[0,0.5],[1,0.5]];portConstraint=eastwest;align=center;" vertex="1" parent="MK_BJogXsGRe00bPJO1N-1">
          <mxGeometry y="182" width="140" height="26" as="geometry" />
        </mxCell>
        <mxCell id="MK_BJogXsGRe00bPJO1N-24" value="Sex_id" style="text;html=1;strokeColor=none;fillColor=none;spacingLeft=4;spacingRight=4;whiteSpace=wrap;overflow=hidden;rotatable=0;points=[[0,0.5],[1,0.5]];portConstraint=eastwest;align=center;" vertex="1" parent="MK_BJogXsGRe00bPJO1N-1">
          <mxGeometry y="208" width="140" height="26" as="geometry" />
        </mxCell>
        <mxCell id="MK_BJogXsGRe00bPJO1N-12" style="edgeStyle=orthogonalEdgeStyle;rounded=0;orthogonalLoop=1;jettySize=auto;html=1;exitX=0;exitY=0.5;exitDx=0;exitDy=0;entryX=1;entryY=0.5;entryDx=0;entryDy=0;" edge="1" parent="1" source="MK_BJogXsGRe00bPJO1N-6" target="YxmOhMVxXYnW-pYDRwPB-2">
          <mxGeometry relative="1" as="geometry" />
        </mxCell>
        <object label="Country" id="MK_BJogXsGRe00bPJO1N-14">
          <mxCell style="swimlane;html=1;fontStyle=0;childLayout=stackLayout;horizontal=1;startSize=26;fillColor=#e0e0e0;horizontalStack=0;resizeParent=1;resizeLast=0;collapsible=1;marginBottom=0;swimlaneFillColor=#ffffff;align=center;rounded=1;shadow=0;comic=0;labelBackgroundColor=none;strokeWidth=1;fontFamily=Verdana;fontSize=12" vertex="1" parent="1">
            <mxGeometry x="69" y="610" width="140" height="80" as="geometry" />
          </mxCell>
        </object>
        <mxCell id="MK_BJogXsGRe00bPJO1N-15" value="Id" style="text;html=1;strokeColor=none;fillColor=none;spacingLeft=4;spacingRight=4;whiteSpace=wrap;overflow=hidden;rotatable=0;points=[[0,0.5],[1,0.5]];portConstraint=eastwest;align=center;" vertex="1" parent="MK_BJogXsGRe00bPJO1N-14">
          <mxGeometry y="26" width="140" height="26" as="geometry" />
        </mxCell>
        <mxCell id="MK_BJogXsGRe00bPJO1N-16" value="Name" style="text;html=1;strokeColor=none;fillColor=none;spacingLeft=4;spacingRight=4;whiteSpace=wrap;overflow=hidden;rotatable=0;points=[[0,0.5],[1,0.5]];portConstraint=eastwest;align=center;" vertex="1" parent="MK_BJogXsGRe00bPJO1N-14">
          <mxGeometry y="52" width="140" height="26" as="geometry" />
        </mxCell>
        <mxCell id="MK_BJogXsGRe00bPJO1N-23" style="edgeStyle=orthogonalEdgeStyle;rounded=0;orthogonalLoop=1;jettySize=auto;html=1;exitX=0;exitY=0.5;exitDx=0;exitDy=0;" edge="1" parent="1" source="MK_BJogXsGRe00bPJO1N-22" target="MK_BJogXsGRe00bPJO1N-15">
          <mxGeometry relative="1" as="geometry" />
        </mxCell>
        <object label="Sex" id="MK_BJogXsGRe00bPJO1N-25">
          <mxCell style="swimlane;html=1;fontStyle=0;childLayout=stackLayout;horizontal=1;startSize=26;fillColor=#e0e0e0;horizontalStack=0;resizeParent=1;resizeLast=0;collapsible=1;marginBottom=0;swimlaneFillColor=#ffffff;align=center;rounded=1;shadow=0;comic=0;labelBackgroundColor=none;strokeWidth=1;fontFamily=Verdana;fontSize=12" vertex="1" parent="1">
            <mxGeometry x="429" y="570" width="140" height="80" as="geometry" />
          </mxCell>
        </object>
        <mxCell id="MK_BJogXsGRe00bPJO1N-26" value="Id" style="text;html=1;strokeColor=none;fillColor=none;spacingLeft=4;spacingRight=4;whiteSpace=wrap;overflow=hidden;rotatable=0;points=[[0,0.5],[1,0.5]];portConstraint=eastwest;align=center;" vertex="1" parent="MK_BJogXsGRe00bPJO1N-25">
          <mxGeometry y="26" width="140" height="26" as="geometry" />
        </mxCell>
        <mxCell id="MK_BJogXsGRe00bPJO1N-27" value="Name" style="text;html=1;strokeColor=none;fillColor=none;spacingLeft=4;spacingRight=4;whiteSpace=wrap;overflow=hidden;rotatable=0;points=[[0,0.5],[1,0.5]];portConstraint=eastwest;align=center;" vertex="1" parent="MK_BJogXsGRe00bPJO1N-25">
          <mxGeometry y="52" width="140" height="26" as="geometry" />
        </mxCell>
        <mxCell id="MK_BJogXsGRe00bPJO1N-28" style="edgeStyle=orthogonalEdgeStyle;rounded=0;orthogonalLoop=1;jettySize=auto;html=1;exitX=1;exitY=0.5;exitDx=0;exitDy=0;entryX=0;entryY=0.5;entryDx=0;entryDy=0;" edge="1" parent="1" source="MK_BJogXsGRe00bPJO1N-24" target="MK_BJogXsGRe00bPJO1N-26">
          <mxGeometry relative="1" as="geometry" />
        </mxCell>
      </root>
    </mxGraphModel>
  </diagram>
  <diagram id="nVJx1LYGwJFyX9TSF07P" name="Page-3">
    <mxGraphModel dx="1036" dy="615" grid="1" gridSize="10" guides="1" tooltips="1" connect="1" arrows="1" fold="1" page="1" pageScale="1" pageWidth="827" pageHeight="1169" math="0" shadow="0">
      <root>
        <mxCell id="0" />
        <mxCell id="1" parent="0" />
        <object label="Params" id="jWrSZKxsRrDj-URrOp_f-1">
          <mxCell style="swimlane;html=1;fontStyle=0;childLayout=stackLayout;horizontal=1;startSize=26;fillColor=#e0e0e0;horizontalStack=0;resizeParent=1;resizeLast=0;collapsible=1;marginBottom=0;swimlaneFillColor=#ffffff;align=center;rounded=1;shadow=0;comic=0;labelBackgroundColor=none;strokeWidth=1;fontFamily=Verdana;fontSize=12" vertex="1" parent="1">
            <mxGeometry x="60" y="70" width="370" height="286" as="geometry">
              <mxRectangle x="140" y="60" width="80" height="30" as="alternateBounds" />
            </mxGeometry>
          </mxCell>
        </object>
        <mxCell id="jWrSZKxsRrDj-URrOp_f-2" value="Copied_or_moved_a_file_or_folder" style="text;html=1;strokeColor=none;fillColor=none;spacingLeft=4;spacingRight=4;whiteSpace=wrap;overflow=hidden;rotatable=0;points=[[0,0.5],[1,0.5]];portConstraint=eastwest;align=center;" vertex="1" parent="jWrSZKxsRrDj-URrOp_f-1">
          <mxGeometry y="26" width="370" height="26" as="geometry" />
        </mxCell>
        <mxCell id="jWrSZKxsRrDj-URrOp_f-3" value="Used_a_copy_and_paste_tool_to_duplicate_or_move_information_wit" style="text;html=1;strokeColor=none;fillColor=none;spacingLeft=4;spacingRight=4;whiteSpace=wrap;overflow=hidden;rotatable=0;points=[[0,0.5],[1,0.5]];portConstraint=eastwest;align=center;" vertex="1" parent="jWrSZKxsRrDj-URrOp_f-1">
          <mxGeometry y="52" width="370" height="26" as="geometry" />
        </mxCell>
        <mxCell id="jWrSZKxsRrDj-URrOp_f-4" value="Sent_email_with_attached_file" style="text;html=1;strokeColor=none;fillColor=none;spacingLeft=4;spacingRight=4;whiteSpace=wrap;overflow=hidden;rotatable=0;points=[[0,0.5],[1,0.5]];portConstraint=eastwest;align=center;" vertex="1" parent="jWrSZKxsRrDj-URrOp_f-1">
          <mxGeometry y="78" width="370" height="26" as="geometry" />
        </mxCell>
        <mxCell id="jWrSZKxsRrDj-URrOp_f-5" value="Used_basic_arithmetic_formula_in_spreadsheet" style="text;html=1;strokeColor=none;fillColor=none;spacingLeft=4;spacingRight=4;whiteSpace=wrap;overflow=hidden;rotatable=0;points=[[0,0.5],[1,0.5]];portConstraint=eastwest;align=center;" vertex="1" parent="jWrSZKxsRrDj-URrOp_f-1">
          <mxGeometry y="104" width="370" height="26" as="geometry" />
        </mxCell>
        <mxCell id="jWrSZKxsRrDj-URrOp_f-6" value="Connected_and_installed_new_device" style="text;html=1;strokeColor=none;fillColor=none;spacingLeft=4;spacingRight=4;whiteSpace=wrap;overflow=hidden;rotatable=0;points=[[0,0.5],[1,0.5]];portConstraint=eastwest;align=center;" vertex="1" parent="jWrSZKxsRrDj-URrOp_f-1">
          <mxGeometry y="130" width="370" height="26" as="geometry" />
        </mxCell>
        <mxCell id="jWrSZKxsRrDj-URrOp_f-7" value="Found_downloaded_installed_and_configured_software" style="text;html=1;strokeColor=none;fillColor=none;spacingLeft=4;spacingRight=4;whiteSpace=wrap;overflow=hidden;rotatable=0;points=[[0,0.5],[1,0.5]];portConstraint=eastwest;align=center;" vertex="1" parent="jWrSZKxsRrDj-URrOp_f-1">
          <mxGeometry y="156" width="370" height="26" as="geometry" />
        </mxCell>
        <mxCell id="jWrSZKxsRrDj-URrOp_f-8" value="Created_electronic_presentation_with_presentation_software" style="text;html=1;strokeColor=none;fillColor=none;spacingLeft=4;spacingRight=4;whiteSpace=wrap;overflow=hidden;rotatable=0;points=[[0,0.5],[1,0.5]];portConstraint=eastwest;align=center;" vertex="1" parent="jWrSZKxsRrDj-URrOp_f-1">
          <mxGeometry y="182" width="370" height="26" as="geometry" />
        </mxCell>
        <mxCell id="jWrSZKxsRrDj-URrOp_f-9" value="&lt;div&gt;Transferred_file_between_computer_and_other_device&lt;/div&gt;&lt;div&gt;&lt;br&gt;&lt;/div&gt;" style="text;html=1;strokeColor=none;fillColor=none;spacingLeft=4;spacingRight=4;whiteSpace=wrap;overflow=hidden;rotatable=0;points=[[0,0.5],[1,0.5]];portConstraint=eastwest;align=center;" vertex="1" parent="jWrSZKxsRrDj-URrOp_f-1">
          <mxGeometry y="208" width="370" height="26" as="geometry" />
        </mxCell>
        <mxCell id="jWrSZKxsRrDj-URrOp_f-10" value="&lt;div&gt;Wrote_computer_program_in_any_programming_language&lt;br&gt;&lt;/div&gt;" style="text;html=1;strokeColor=none;fillColor=none;spacingLeft=4;spacingRight=4;whiteSpace=wrap;overflow=hidden;rotatable=0;points=[[0,0.5],[1,0.5]];portConstraint=eastwest;align=center;" vertex="1" parent="jWrSZKxsRrDj-URrOp_f-1">
          <mxGeometry y="234" width="370" height="26" as="geometry" />
        </mxCell>
        <mxCell id="jWrSZKxsRrDj-URrOp_f-11" value="&lt;div&gt;Performed_at_least_one_out_of_nine_activities&lt;br&gt;&lt;/div&gt;" style="text;html=1;strokeColor=none;fillColor=none;spacingLeft=4;spacingRight=4;whiteSpace=wrap;overflow=hidden;rotatable=0;points=[[0,0.5],[1,0.5]];portConstraint=eastwest;align=center;" vertex="1" parent="jWrSZKxsRrDj-URrOp_f-1">
          <mxGeometry y="260" width="370" height="26" as="geometry" />
        </mxCell>
        <object label="Categories" id="jWrSZKxsRrDj-URrOp_f-12">
          <mxCell style="swimlane;html=1;fontStyle=0;childLayout=stackLayout;horizontal=1;startSize=26;fillColor=#e0e0e0;horizontalStack=0;resizeParent=1;resizeLast=0;collapsible=1;marginBottom=0;swimlaneFillColor=#ffffff;align=center;rounded=1;shadow=0;comic=0;labelBackgroundColor=none;strokeWidth=1;fontFamily=Verdana;fontSize=12" vertex="1" parent="1">
            <mxGeometry x="70" y="390" width="140" height="110" as="geometry" />
          </mxCell>
        </object>
        <mxCell id="jWrSZKxsRrDj-URrOp_f-13" value="Id" style="text;html=1;strokeColor=none;fillColor=none;spacingLeft=4;spacingRight=4;whiteSpace=wrap;overflow=hidden;rotatable=0;points=[[0,0.5],[1,0.5]];portConstraint=eastwest;align=center;" vertex="1" parent="jWrSZKxsRrDj-URrOp_f-12">
          <mxGeometry y="26" width="140" height="26" as="geometry" />
        </mxCell>
        <mxCell id="jWrSZKxsRrDj-URrOp_f-15" value="ISO3" style="text;html=1;strokeColor=none;fillColor=none;spacingLeft=4;spacingRight=4;whiteSpace=wrap;overflow=hidden;rotatable=0;points=[[0,0.5],[1,0.5]];portConstraint=eastwest;align=center;" vertex="1" parent="jWrSZKxsRrDj-URrOp_f-12">
          <mxGeometry y="52" width="140" height="26" as="geometry" />
        </mxCell>
        <mxCell id="jWrSZKxsRrDj-URrOp_f-16" value="UNICER_Region" style="text;html=1;strokeColor=none;fillColor=none;spacingLeft=4;spacingRight=4;whiteSpace=wrap;overflow=hidden;rotatable=0;points=[[0,0.5],[1,0.5]];portConstraint=eastwest;align=center;" vertex="1" parent="jWrSZKxsRrDj-URrOp_f-12">
          <mxGeometry y="78" width="140" height="26" as="geometry" />
        </mxCell>
        <object label="Summaries" id="jWrSZKxsRrDj-URrOp_f-17">
          <mxCell style="swimlane;html=1;fontStyle=0;childLayout=stackLayout;horizontal=1;startSize=26;fillColor=#e0e0e0;horizontalStack=0;resizeParent=1;resizeLast=0;collapsible=1;marginBottom=0;swimlaneFillColor=#ffffff;align=center;rounded=1;shadow=0;comic=0;labelBackgroundColor=none;strokeWidth=1;fontFamily=Verdana;fontSize=12" vertex="1" parent="1">
            <mxGeometry x="270" y="390" width="140" height="210" as="geometry" />
          </mxCell>
        </object>
        <mxCell id="jWrSZKxsRrDj-URrOp_f-18" value="id" style="text;html=1;strokeColor=none;fillColor=none;spacingLeft=4;spacingRight=4;whiteSpace=wrap;overflow=hidden;rotatable=0;points=[[0,0.5],[1,0.5]];portConstraint=eastwest;align=center;" vertex="1" parent="jWrSZKxsRrDj-URrOp_f-17">
          <mxGeometry y="26" width="140" height="26" as="geometry" />
        </mxCell>
        <mxCell id="jWrSZKxsRrDj-URrOp_f-19" value="Params" style="text;html=1;strokeColor=none;fillColor=none;spacingLeft=4;spacingRight=4;whiteSpace=wrap;overflow=hidden;rotatable=0;points=[[0,0.5],[1,0.5]];portConstraint=eastwest;align=center;" vertex="1" parent="jWrSZKxsRrDj-URrOp_f-17">
          <mxGeometry y="52" width="140" height="26" as="geometry" />
        </mxCell>
        <mxCell id="jWrSZKxsRrDj-URrOp_f-20" value="Source" style="text;html=1;strokeColor=none;fillColor=none;spacingLeft=4;spacingRight=4;whiteSpace=wrap;overflow=hidden;rotatable=0;points=[[0,0.5],[1,0.5]];portConstraint=eastwest;align=center;" vertex="1" parent="jWrSZKxsRrDj-URrOp_f-17">
          <mxGeometry y="78" width="140" height="26" as="geometry" />
        </mxCell>
        <mxCell id="jWrSZKxsRrDj-URrOp_f-21" value="Year&lt;span style=&quot;white-space: pre;&quot;&gt;&#x9;&lt;/span&gt;" style="text;html=1;strokeColor=none;fillColor=none;spacingLeft=4;spacingRight=4;whiteSpace=wrap;overflow=hidden;rotatable=0;points=[[0,0.5],[1,0.5]];portConstraint=eastwest;align=center;" vertex="1" parent="jWrSZKxsRrDj-URrOp_f-17">
          <mxGeometry y="104" width="140" height="26" as="geometry" />
        </mxCell>
        <mxCell id="jWrSZKxsRrDj-URrOp_f-22" value="Category_id" style="text;html=1;strokeColor=none;fillColor=none;spacingLeft=4;spacingRight=4;whiteSpace=wrap;overflow=hidden;rotatable=0;points=[[0,0.5],[1,0.5]];portConstraint=eastwest;align=center;" vertex="1" parent="jWrSZKxsRrDj-URrOp_f-17">
          <mxGeometry y="130" width="140" height="26" as="geometry" />
        </mxCell>
        <mxCell id="jWrSZKxsRrDj-URrOp_f-23" value="Country_id" style="text;html=1;strokeColor=none;fillColor=none;spacingLeft=4;spacingRight=4;whiteSpace=wrap;overflow=hidden;rotatable=0;points=[[0,0.5],[1,0.5]];portConstraint=eastwest;align=center;" vertex="1" parent="jWrSZKxsRrDj-URrOp_f-17">
          <mxGeometry y="156" width="140" height="26" as="geometry" />
        </mxCell>
        <mxCell id="jWrSZKxsRrDj-URrOp_f-24" value="Sex_id" style="text;html=1;strokeColor=none;fillColor=none;spacingLeft=4;spacingRight=4;whiteSpace=wrap;overflow=hidden;rotatable=0;points=[[0,0.5],[1,0.5]];portConstraint=eastwest;align=center;" vertex="1" parent="jWrSZKxsRrDj-URrOp_f-17">
          <mxGeometry y="182" width="140" height="26" as="geometry" />
        </mxCell>
        <mxCell id="jWrSZKxsRrDj-URrOp_f-25" style="edgeStyle=orthogonalEdgeStyle;rounded=0;orthogonalLoop=1;jettySize=auto;html=1;exitX=0;exitY=0.5;exitDx=0;exitDy=0;entryX=1;entryY=0.5;entryDx=0;entryDy=0;" edge="1" parent="1" source="jWrSZKxsRrDj-URrOp_f-22" target="jWrSZKxsRrDj-URrOp_f-13">
          <mxGeometry relative="1" as="geometry" />
        </mxCell>
        <object label="Country" id="jWrSZKxsRrDj-URrOp_f-26">
          <mxCell style="swimlane;html=1;fontStyle=0;childLayout=stackLayout;horizontal=1;startSize=26;fillColor=#e0e0e0;horizontalStack=0;resizeParent=1;resizeLast=0;collapsible=1;marginBottom=0;swimlaneFillColor=#ffffff;align=center;rounded=1;shadow=0;comic=0;labelBackgroundColor=none;strokeWidth=1;fontFamily=Verdana;fontSize=12" vertex="1" parent="1">
            <mxGeometry x="70" y="550" width="140" height="80" as="geometry" />
          </mxCell>
        </object>
        <mxCell id="jWrSZKxsRrDj-URrOp_f-27" value="Id" style="text;html=1;strokeColor=none;fillColor=none;spacingLeft=4;spacingRight=4;whiteSpace=wrap;overflow=hidden;rotatable=0;points=[[0,0.5],[1,0.5]];portConstraint=eastwest;align=center;" vertex="1" parent="jWrSZKxsRrDj-URrOp_f-26">
          <mxGeometry y="26" width="140" height="26" as="geometry" />
        </mxCell>
        <mxCell id="jWrSZKxsRrDj-URrOp_f-28" value="Name" style="text;html=1;strokeColor=none;fillColor=none;spacingLeft=4;spacingRight=4;whiteSpace=wrap;overflow=hidden;rotatable=0;points=[[0,0.5],[1,0.5]];portConstraint=eastwest;align=center;" vertex="1" parent="jWrSZKxsRrDj-URrOp_f-26">
          <mxGeometry y="52" width="140" height="26" as="geometry" />
        </mxCell>
        <mxCell id="jWrSZKxsRrDj-URrOp_f-29" style="edgeStyle=orthogonalEdgeStyle;rounded=0;orthogonalLoop=1;jettySize=auto;html=1;exitX=0;exitY=0.5;exitDx=0;exitDy=0;" edge="1" parent="1" source="jWrSZKxsRrDj-URrOp_f-23" target="jWrSZKxsRrDj-URrOp_f-27">
          <mxGeometry relative="1" as="geometry" />
        </mxCell>
        <object label="Sex" id="jWrSZKxsRrDj-URrOp_f-30">
          <mxCell style="swimlane;html=1;fontStyle=0;childLayout=stackLayout;horizontal=1;startSize=26;fillColor=#e0e0e0;horizontalStack=0;resizeParent=1;resizeLast=0;collapsible=1;marginBottom=0;swimlaneFillColor=#ffffff;align=center;rounded=1;shadow=0;comic=0;labelBackgroundColor=none;strokeWidth=1;fontFamily=Verdana;fontSize=12" vertex="1" parent="1">
            <mxGeometry x="460" y="570" width="140" height="80" as="geometry" />
          </mxCell>
        </object>
        <mxCell id="jWrSZKxsRrDj-URrOp_f-31" value="Id" style="text;html=1;strokeColor=none;fillColor=none;spacingLeft=4;spacingRight=4;whiteSpace=wrap;overflow=hidden;rotatable=0;points=[[0,0.5],[1,0.5]];portConstraint=eastwest;align=center;" vertex="1" parent="jWrSZKxsRrDj-URrOp_f-30">
          <mxGeometry y="26" width="140" height="26" as="geometry" />
        </mxCell>
        <mxCell id="jWrSZKxsRrDj-URrOp_f-32" value="Name" style="text;html=1;strokeColor=none;fillColor=none;spacingLeft=4;spacingRight=4;whiteSpace=wrap;overflow=hidden;rotatable=0;points=[[0,0.5],[1,0.5]];portConstraint=eastwest;align=center;" vertex="1" parent="jWrSZKxsRrDj-URrOp_f-30">
          <mxGeometry y="52" width="140" height="26" as="geometry" />
        </mxCell>
        <mxCell id="jWrSZKxsRrDj-URrOp_f-33" style="edgeStyle=orthogonalEdgeStyle;rounded=0;orthogonalLoop=1;jettySize=auto;html=1;exitX=1;exitY=0.5;exitDx=0;exitDy=0;entryX=0;entryY=0.5;entryDx=0;entryDy=0;" edge="1" parent="1" source="jWrSZKxsRrDj-URrOp_f-24" target="jWrSZKxsRrDj-URrOp_f-31">
          <mxGeometry relative="1" as="geometry" />
        </mxCell>
        <object label="SubmitLogs" id="JKRrq6z-aOqKiFd86k7Y-1">
          <mxCell style="swimlane;html=1;fontStyle=0;childLayout=stackLayout;horizontal=1;startSize=26;fillColor=#e0e0e0;horizontalStack=0;resizeParent=1;resizeLast=0;collapsible=1;marginBottom=0;swimlaneFillColor=#ffffff;align=center;rounded=1;shadow=0;comic=0;labelBackgroundColor=none;strokeWidth=1;fontFamily=Verdana;fontSize=12;arcSize=0;" vertex="1" parent="1">
            <mxGeometry x="70" y="650" width="140" height="208" as="geometry" />
          </mxCell>
        </object>
        <mxCell id="JKRrq6z-aOqKiFd86k7Y-2" value="id" style="text;html=1;strokeColor=none;fillColor=none;spacingLeft=4;spacingRight=4;whiteSpace=wrap;overflow=hidden;rotatable=0;points=[[0,0.5],[1,0.5]];portConstraint=eastwest;align=center;" vertex="1" parent="JKRrq6z-aOqKiFd86k7Y-1">
          <mxGeometry y="26" width="140" height="26" as="geometry" />
        </mxCell>
        <mxCell id="JKRrq6z-aOqKiFd86k7Y-3" value="Name" style="text;html=1;strokeColor=none;fillColor=none;spacingLeft=4;spacingRight=4;whiteSpace=wrap;overflow=hidden;rotatable=0;points=[[0,0.5],[1,0.5]];portConstraint=eastwest;align=center;" vertex="1" parent="JKRrq6z-aOqKiFd86k7Y-1">
          <mxGeometry y="52" width="140" height="26" as="geometry" />
        </mxCell>
        <mxCell id="JKRrq6z-aOqKiFd86k7Y-4" value="Address" style="text;html=1;strokeColor=none;fillColor=none;spacingLeft=4;spacingRight=4;whiteSpace=wrap;overflow=hidden;rotatable=0;points=[[0,0.5],[1,0.5]];portConstraint=eastwest;align=center;" vertex="1" parent="JKRrq6z-aOqKiFd86k7Y-1">
          <mxGeometry y="78" width="140" height="26" as="geometry" />
        </mxCell>
        <mxCell id="JKRrq6z-aOqKiFd86k7Y-5" value="Country_id" style="text;html=1;strokeColor=none;fillColor=none;spacingLeft=4;spacingRight=4;whiteSpace=wrap;overflow=hidden;rotatable=0;points=[[0,0.5],[1,0.5]];portConstraint=eastwest;align=center;" vertex="1" parent="JKRrq6z-aOqKiFd86k7Y-1">
          <mxGeometry y="104" width="140" height="26" as="geometry" />
        </mxCell>
        <mxCell id="JKRrq6z-aOqKiFd86k7Y-6" value="Sex_id" style="text;html=1;strokeColor=none;fillColor=none;spacingLeft=4;spacingRight=4;whiteSpace=wrap;overflow=hidden;rotatable=0;points=[[0,0.5],[1,0.5]];portConstraint=eastwest;align=center;" vertex="1" parent="JKRrq6z-aOqKiFd86k7Y-1">
          <mxGeometry y="130" width="140" height="26" as="geometry" />
        </mxCell>
        <mxCell id="JKRrq6z-aOqKiFd86k7Y-7" value="key" style="text;html=1;strokeColor=none;fillColor=none;spacingLeft=4;spacingRight=4;whiteSpace=wrap;overflow=hidden;rotatable=0;points=[[0,0.5],[1,0.5]];portConstraint=eastwest;align=center;" vertex="1" parent="JKRrq6z-aOqKiFd86k7Y-1">
          <mxGeometry y="156" width="140" height="26" as="geometry" />
        </mxCell>
        <mxCell id="JKRrq6z-aOqKiFd86k7Y-8" value="Params" style="text;html=1;strokeColor=none;fillColor=none;spacingLeft=4;spacingRight=4;whiteSpace=wrap;overflow=hidden;rotatable=0;points=[[0,0.5],[1,0.5]];portConstraint=eastwest;align=center;" vertex="1" parent="JKRrq6z-aOqKiFd86k7Y-1">
          <mxGeometry y="182" width="140" height="26" as="geometry" />
        </mxCell>
        <object label="Activities" id="5hGeLvDCe8yMH6kdIq0M-1">
          <mxCell style="swimlane;html=1;fontStyle=0;childLayout=stackLayout;horizontal=1;startSize=26;fillColor=#e0e0e0;horizontalStack=0;resizeParent=1;resizeLast=0;collapsible=1;marginBottom=0;swimlaneFillColor=#ffffff;align=center;rounded=1;shadow=0;comic=0;labelBackgroundColor=none;strokeWidth=1;fontFamily=Verdana;fontSize=12" vertex="1" parent="1">
            <mxGeometry x="270" y="650" width="140" height="130" as="geometry" />
          </mxCell>
        </object>
        <mxCell id="5hGeLvDCe8yMH6kdIq0M-2" value="old" style="text;html=1;strokeColor=none;fillColor=none;spacingLeft=4;spacingRight=4;whiteSpace=wrap;overflow=hidden;rotatable=0;points=[[0,0.5],[1,0.5]];portConstraint=eastwest;align=center;" vertex="1" parent="5hGeLvDCe8yMH6kdIq0M-1">
          <mxGeometry y="26" width="140" height="26" as="geometry" />
        </mxCell>
        <mxCell id="5hGeLvDCe8yMH6kdIq0M-3" value="new" style="text;html=1;strokeColor=none;fillColor=none;spacingLeft=4;spacingRight=4;whiteSpace=wrap;overflow=hidden;rotatable=0;points=[[0,0.5],[1,0.5]];portConstraint=eastwest;align=center;" vertex="1" parent="5hGeLvDCe8yMH6kdIq0M-1">
          <mxGeometry y="52" width="140" height="26" as="geometry" />
        </mxCell>
        <mxCell id="5hGeLvDCe8yMH6kdIq0M-4" value="SubmitLogs_id" style="text;html=1;strokeColor=none;fillColor=none;spacingLeft=4;spacingRight=4;whiteSpace=wrap;overflow=hidden;rotatable=0;points=[[0,0.5],[1,0.5]];portConstraint=eastwest;align=center;" vertex="1" parent="5hGeLvDCe8yMH6kdIq0M-1">
          <mxGeometry y="78" width="140" height="26" as="geometry" />
        </mxCell>
        <mxCell id="5hGeLvDCe8yMH6kdIq0M-9" value="Summaries_id" style="text;html=1;strokeColor=none;fillColor=none;spacingLeft=4;spacingRight=4;whiteSpace=wrap;overflow=hidden;rotatable=0;points=[[0,0.5],[1,0.5]];portConstraint=eastwest;align=center;" vertex="1" parent="5hGeLvDCe8yMH6kdIq0M-1">
          <mxGeometry y="104" width="140" height="26" as="geometry" />
        </mxCell>
        <mxCell id="5hGeLvDCe8yMH6kdIq0M-5" style="edgeStyle=orthogonalEdgeStyle;rounded=0;orthogonalLoop=1;jettySize=auto;html=1;exitX=0;exitY=0.5;exitDx=0;exitDy=0;entryX=1;entryY=0.5;entryDx=0;entryDy=0;" edge="1" parent="1" source="5hGeLvDCe8yMH6kdIq0M-4" target="JKRrq6z-aOqKiFd86k7Y-2">
          <mxGeometry relative="1" as="geometry" />
        </mxCell>
        <mxCell id="5hGeLvDCe8yMH6kdIq0M-6" style="edgeStyle=orthogonalEdgeStyle;rounded=0;orthogonalLoop=1;jettySize=auto;html=1;exitX=0;exitY=0.5;exitDx=0;exitDy=0;entryX=0;entryY=0.5;entryDx=0;entryDy=0;" edge="1" parent="1" source="JKRrq6z-aOqKiFd86k7Y-5" target="jWrSZKxsRrDj-URrOp_f-27">
          <mxGeometry relative="1" as="geometry" />
        </mxCell>
        <mxCell id="5hGeLvDCe8yMH6kdIq0M-7" style="edgeStyle=orthogonalEdgeStyle;rounded=0;orthogonalLoop=1;jettySize=auto;html=1;exitX=1;exitY=0.5;exitDx=0;exitDy=0;entryX=1;entryY=0.5;entryDx=0;entryDy=0;" edge="1" parent="1" source="JKRrq6z-aOqKiFd86k7Y-6" target="jWrSZKxsRrDj-URrOp_f-31">
          <mxGeometry relative="1" as="geometry" />
        </mxCell>
        <mxCell id="5hGeLvDCe8yMH6kdIq0M-10" style="edgeStyle=orthogonalEdgeStyle;rounded=0;orthogonalLoop=1;jettySize=auto;html=1;exitX=1;exitY=0.5;exitDx=0;exitDy=0;entryX=1;entryY=0.5;entryDx=0;entryDy=0;" edge="1" parent="1" source="jWrSZKxsRrDj-URrOp_f-18" target="5hGeLvDCe8yMH6kdIq0M-9">
          <mxGeometry relative="1" as="geometry" />
        </mxCell>
      </root>
    </mxGraphModel>
  </diagram>
</mxfile>
